<?xml version="1.0" standalone="no"?>
<!DOCTYPE svg PUBLIC "-//W3C//DTD SVG 20010904//EN"
 "http://www.w3.org/TR/2001/REC-SVG-20010904/DTD/svg10.dtd">
<svg version="1.0" xmlns="http://www.w3.org/2000/svg"
 width="500.000000pt" height="500.000000pt" viewBox="0 0 500.000000 500.000000"
 preserveAspectRatio="xMidYMid meet">
<metadata>
Created by potrace 1.11, written by Peter Selinger 2001-2013
</metadata>
<g transform="translate(0.000000,500.000000) scale(0.100000,-0.100000)"
fill="#000000" stroke="none">
<path d="M2787 3784 c-3 -3 -34 -7 -69 -9 -34 -2 -70 -6 -78 -8 -8 -3 -44 -8
-80 -11 -94 -8 -191 -29 -399 -87 -57 -16 -107 -27 -109 -24 -3 3 -12 -1 -21
-9 -15 -13 -94 -37 -181 -56 -19 -4 -82 -24 -140 -44 -58 -21 -125 -43 -150
-50 -88 -25 -216 -107 -288 -186 -29 -31 -123 -168 -127 -184 -3 -14 -14 -44
-27 -76 -6 -14 -12 -31 -14 -38 -1 -8 -6 -21 -10 -30 -4 -9 -8 -22 -10 -29 -1
-7 -9 -34 -18 -61 -9 -27 -16 -54 -14 -58 1 -5 -1 -22 -5 -39 -26 -115 -35
-350 -18 -480 9 -70 50 -190 93 -275 70 -138 259 -326 403 -401 153 -81 294
-144 345 -154 8 -2 47 -12 85 -24 86 -25 279 -52 377 -51 40 0 118 -2 173 -3
99 -3 266 8 295 20 8 4 26 8 40 9 77 9 290 103 364 161 22 18 45 33 49 33 8 0
45 28 134 103 41 34 125 123 193 203 104 123 249 380 301 536 66 196 88 537
47 731 -38 183 -97 297 -212 413 -69 69 -93 86 -161 114 -124 51 -199 61 -496
65 -147 3 -269 2 -272 -1z m949 -216 l29 -33 -32 29 c-31 28 -38 36 -30 36 2
0 16 -15 33 -32z"/>
<path d="M2977 1225 c3 -8 9 -12 14 -9 12 7 11 11 -5 17 -10 4 -13 1 -9 -8z"/>
</g>
</svg>
